<svg width="256" height="256" viewBox="0 0 256 256" xmlns="http://www.w3.org/2000/svg">
  <defs>
    <clipPath id="c3"><circle cx="128" cy="128" r="128"/></clipPath>
    <linearGradient id="bg3" x1="0" y1="0" x2="1" y2="1">
      <stop offset="0%" stop-color="#ea580c"/><stop offset="100%" stop-color="#f97316"/>
    </linearGradient>
  </defs>
  <g clip-path="url(#c3)">
    <rect width="256" height="256" fill="url(#bg3)"/>
    <g transform="translate(128,128) rotate(-8)">
      <rect x="-108" y="-56" width="24" height="24" rx="3" fill="#22c55e" opacity="0.9"/>
      <rect x="-80" y="-56" width="24" height="24" rx="3" fill="#eab308" opacity="0.85"/>
      <rect x="-52" y="-56" width="24" height="24" rx="3" fill="#3f3f46" opacity="0.7"/>
      <rect x="-24" y="-56" width="24" height="24" rx="3" fill="#22c55e" opacity="0.85"/>
      <rect x="4" y="-56" width="24" height="24" rx="3" fill="#3f3f46" opacity="0.65"/>
      <rect x="32" y="-56" width="24" height="24" rx="3" fill="#eab308" opacity="0.9"/>
      <rect x="60" y="-56" width="24" height="24" rx="3" fill="#22c55e" opacity="0.8"/>
      <rect x="88" y="-56" width="24" height="24" rx="3" fill="#3f3f46" opacity="0.7"/>
      <rect x="-108" y="-28" width="24" height="24" rx="3" fill="#3f3f46" opacity="0.65"/>
      <rect x="-80" y="-28" width="24" height="24" rx="3" fill="#22c55e" opacity="0.85"/>
      <rect x="-52" y="-28" width="24" height="24" rx="3" fill="#22c55e" opacity="0.9"/>
      <rect x="-24" y="-28" width="24" height="24" rx="3" fill="#eab308" opacity="0.8"/>
      <rect x="4" y="-28" width="24" height="24" rx="3" fill="#22c55e" opacity="0.9"/>
      <rect x="32" y="-28" width="24" height="24" rx="3" fill="#3f3f46" opacity="0.7"/>
      <rect x="60" y="-28" width="24" height="24" rx="3" fill="#eab308" opacity="0.85"/>
      <rect x="88" y="-28" width="24" height="24" rx="3" fill="#22c55e" opacity="0.9"/>
      <rect x="-108" y="0" width="24" height="24" rx="3" fill="#eab308" opacity="0.85"/>
      <rect x="-80" y="0" width="24" height="24" rx="3" fill="#3f3f46" opacity="0.7"/>
      <rect x="-52" y="0" width="24" height="24" rx="3" fill="#eab308" opacity="0.9"/>
      <rect x="-24" y="0" width="24" height="24" rx="3" fill="#22c55e" opacity="0.85"/>
      <rect x="4" y="0" width="24" height="24" rx="3" fill="#eab308" opacity="0.8"/>
      <rect x="32" y="0" width="24" height="24" rx="3" fill="#22c55e" opacity="0.9"/>
      <rect x="60" y="0" width="24" height="24" rx="3" fill="#3f3f46" opacity="0.65"/>
      <rect x="88" y="0" width="24" height="24" rx="3" fill="#eab308" opacity="0.85"/>
      <rect x="-108" y="28" width="24" height="24" rx="3" fill="#22c55e" opacity="0.9"/>
      <rect x="-80" y="28" width="24" height="24" rx="3" fill="#22c55e" opacity="0.8"/>
      <rect x="-52" y="28" width="24" height="24" rx="3" fill="#3f3f46" opacity="0.7"/>
      <rect x="-24" y="28" width="24" height="24" rx="3" fill="#3f3f46" opacity="0.65"/>
      <rect x="4" y="28" width="24" height="24" rx="3" fill="#22c55e" opacity="0.85"/>
      <rect x="32" y="28" width="24" height="24" rx="3" fill="#eab308" opacity="0.9"/>
      <rect x="60" y="28" width="24" height="24" rx="3" fill="#22c55e" opacity="0.9"/>
      <rect x="88" y="28" width="24" height="24" rx="3" fill="#3f3f46" opacity="0.7"/>
    </g>
  </g>
  <circle cx="128" cy="128" r="125" fill="none" stroke="#fff" stroke-width="3" stroke-opacity="0.15"/>
</svg>
